# xmcd
#
# Track frame offsets: 
#        150
#        13525
#        28262
#        44621
#        57161
#        74129
#        86154
#        100317
#        118461
#        131131
#
# Disc length: 1940 seconds
#
# Revision: 0
# Processed by: cddbd v1.5.2PL0 Copyright (c) Steve Scherf et al.
# Submitted via: ExactAudioCopy v1.3
#
DISCID=9b07920a
DTITLE=Lynn Anderson - Even Cowgirls Get The Blues
DYEAR=1980
DGENRE=Country
TTITLE0=Even Cowgirls Get The Blues
TTITLE1=Poor Side Of Town
TTITLE2=Shoulder To Shoulder
TTITLE3=Give You Up To Get You Back
TTITLE4=The Lonely Hearts Cafe
TTITLE5=Blue Baby Blue
TTITLE6=You Thrill Me
TTITLE7=See Through Me
TTITLE8=Love Me Tonight
TTITLE9=Louisiana 1927
EXTD=
EXTT0=
EXTT1=
EXTT2=
EXTT3=
EXTT4=
EXTT5=
EXTT6=
EXTT7=
EXTT8=
EXTT9=
PLAYORDER=
